<svg data-v-423bf9ae="" xmlns="http://www.w3.org/2000/svg" viewBox="0 0 459.62260785398877 163"
     class="iconAbove"><!----><!----><!---->
    <g fill="white" transform="matrix(4.92206705261137,0,0,4.92206705261137,-5.512708162052633,84.78835381640269)">
        <path d="M8.51 4.79C7.69 4.13 6.55 3.78 5.22 3.78L1.40 3.78C1.25 3.78 1.12 3.91 1.12 4.06L1.12 5.18L3.28 8.69L1.12 8.69L1.12 15.53C1.12 15.68 1.25 15.81 1.40 15.81L3.04 15.81C3.19 15.81 3.30 15.68 3.30 15.53L3.30 10.89L5.25 10.89C6.57 10.88 7.70 10.54 8.51 9.88C9.34 9.23 9.80 8.30 9.80 7.34C9.80 6.36 9.34 5.43 8.51 4.79ZM4.17 5.96L5.22 5.96C6.79 5.96 7.62 6.65 7.62 7.34C7.62 7.92 7 8.51 5.81 8.67ZM16.52 15.82C13.20 15.82 10.50 13.12 10.50 9.80C10.50 6.48 13.20 3.78 16.52 3.78C19.84 3.78 22.54 6.48 22.54 9.80C22.54 13.12 19.84 15.82 16.52 15.82ZM16.52 5.96C14.41 5.96 12.68 7.69 12.68 9.80C12.68 11.91 14.41 13.62 16.52 13.62C18.63 13.62 20.34 11.91 20.34 9.80C20.34 7.69 18.63 5.96 16.52 5.96ZM33.73 8.79C33.68 8.74 33.63 8.71 33.56 8.71L29.72 8.71C29.57 8.71 29.46 8.83 29.46 8.99L29.46 10.63C29.46 10.78 29.57 10.89 29.72 10.89L31.64 10.89L31.64 12.95C29.97 14.11 27.66 13.76 26.42 12.12C25.13 10.44 25.45 8.04 27.13 6.76C28.46 5.75 30.24 5.74 31.56 6.61C31.65 6.66 31.78 6.66 31.86 6.59L33.22 5.56C33.35 5.46 33.36 5.29 33.26 5.17C33.26 5.15 33.25 5.14 33.24 5.12L33.19 5.10C31.09 3.42 28.04 3.32 25.82 5.03C23.17 7.04 22.67 10.82 24.68 13.45C26.33 15.62 29.20 16.35 31.64 15.41C32.16 15.20 32.65 14.94 33.11 14.59C33.33 14.41 33.54 14.22 33.74 14.03L33.74 14.01C33.80 13.97 33.82 13.90 33.82 13.82L33.82 8.99C33.82 8.90 33.80 8.85 33.73 8.79ZM40.75 15.82C37.44 15.82 34.73 13.12 34.73 9.80C34.73 6.48 37.44 3.78 40.75 3.78C44.07 3.78 46.77 6.48 46.77 9.80C46.77 13.12 44.07 15.82 40.75 15.82ZM40.75 5.96C38.64 5.96 36.92 7.69 36.92 9.80C36.92 11.91 38.64 13.62 40.75 13.62C42.87 13.62 44.58 11.91 44.58 9.80C44.58 7.69 42.87 5.96 40.75 5.96ZM51.38 15.81C52.74 15.82 54.10 15.37 55.22 14.45C57.76 12.35 58.14 8.55 56.03 5.99C54.85 4.55 53.12 3.79 51.38 3.79L48.38 3.79C48.23 3.79 48.10 3.92 48.10 4.06L48.10 15.47C48.10 15.67 48.23 15.81 48.38 15.81ZM54.35 7.38C55.69 9.00 55.45 11.42 53.82 12.75C53.12 13.34 52.25 13.64 51.38 13.62L50.29 13.62L50.29 5.98L51.38 5.98C52.49 5.98 53.59 6.45 54.35 7.38ZM66.04 4.06C66.04 4.10 66.04 4.13 66.02 4.17L66.00 4.21L62.96 10.05L62.50 10.96L60.06 15.62L60.05 15.67C60.05 15.68 60.05 15.68 60.03 15.68C59.99 15.75 59.91 15.81 59.81 15.81L57.96 15.81C57.81 15.81 57.69 15.68 57.69 15.51C57.69 15.48 57.69 15.46 57.71 15.43L57.75 15.34L60.58 9.91L57.71 4.20C57.69 4.14 57.68 4.10 57.68 4.06C57.68 4.03 57.68 3.99 57.69 3.96L57.74 3.88C57.79 3.81 57.86 3.77 57.96 3.77L59.78 3.77C59.88 3.77 59.98 3.82 60.02 3.91L61.82 7.52L63.67 3.95C63.69 3.93 63.69 3.92 63.69 3.92L63.71 3.88C63.76 3.81 63.84 3.77 63.92 3.77L65.77 3.77C65.93 3.77 66.04 3.91 66.04 4.06ZM75.36 15.89L69.34 9.32L69.34 15.53C69.34 15.68 69.23 15.81 69.08 15.81L67.44 15.81C67.28 15.81 67.16 15.68 67.16 15.53L67.16 3.70L73.18 10.26L73.18 4.06C73.18 3.91 73.30 3.78 73.44 3.78L75.10 3.78C75.24 3.78 75.36 3.91 75.36 4.06ZM85.25 15.53C85.25 15.68 85.13 15.81 84.98 15.81L82.98 15.81C82.89 15.81 82.82 15.78 82.77 15.71L82.75 15.68L79.37 10.92L79.37 15.53C79.37 15.68 79.25 15.81 79.10 15.81L77.46 15.81C77.31 15.81 77.18 15.68 77.18 15.53L77.18 8.69L78.47 8.69L77.21 4.20L77.18 4.09L77.18 4.06C77.18 3.91 77.31 3.78 77.46 3.78L79.17 3.78C79.28 3.78 79.39 3.86 79.42 3.98L80.53 7.92L82.74 3.93C82.80 3.84 82.88 3.78 82.99 3.78L84.85 3.78C85.01 3.78 85.13 3.91 85.13 4.06C85.13 4.10 85.12 4.14 85.11 4.19L85.08 4.23L81.66 10.37L85.18 15.33L85.22 15.37C85.23 15.41 85.25 15.47 85.25 15.53ZM94.50 11.16C94.50 11.00 94.37 10.89 94.22 10.89L93.30 10.89L91.59 4.05L91.57 3.98C91.53 3.88 91.43 3.81 91.32 3.81L89.49 3.81C89.38 3.81 89.28 3.88 89.24 3.98L89.22 4.06L86.38 15.41C86.38 15.43 86.38 15.44 86.37 15.44L86.37 15.50C86.37 15.67 86.49 15.79 86.63 15.79L88.33 15.79C88.44 15.79 88.55 15.71 88.58 15.60C88.58 15.58 88.59 15.57 88.59 15.57L89.21 13.06L91.60 13.06L92.22 15.55L92.23 15.60C92.27 15.71 92.37 15.79 92.48 15.79L94.18 15.79C94.33 15.79 94.44 15.67 94.44 15.50L94.44 15.47L94.43 15.40L93.84 13.06L94.22 13.06C94.37 13.06 94.50 12.95 94.50 12.80ZM89.75 10.89L90.41 8.30L91.06 10.89Z"></path>
    </g><!---->
    <g transform="matrix(1.0134801290459268,0,0,1.0134801290459268,179.3265038241048,-0.0011468159314489412)"
       stroke="none" fill="white">
        <path d="M96.295 48.146h-7.408a3.702 3.702 0 0 1 0-7.404h7.408a3.704 3.704 0 0 1 3.704 3.701 3.703 3.703 0 0 1-3.704 3.703zM81.744 23.492a3.705 3.705 0 0 1-5.238 0 3.7 3.7 0 0 1 0-5.236l5.238-5.238a3.703 3.703 0 1 1 5.237 5.238l-5.237 5.236zM76.285 52.396a22.26 22.26 0 0 0 1.494-7.953c0-12.27-9.951-22.222-22.226-22.222-7.142 0-13.481 3.384-17.547 8.619a29.628 29.628 0 0 0-8.377-1.21C13.266 29.63 0 42.895 0 59.258c0 16.365 13.266 29.63 29.629 29.63h29.628c12.274 0 22.226-9.951 22.226-22.222a22.123 22.123 0 0 0-5.198-14.27zM55.553 29.63c8.183 0 14.817 6.634 14.817 14.813 0 .969-.102 1.912-.279 2.828a22.12 22.12 0 0 0-10.834-2.828c-1.289 0-2.535.17-3.766.38A29.833 29.833 0 0 0 45.067 33.98a14.765 14.765 0 0 1 10.486-4.35zm3.704 51.85h-29.63c-12.273 0-22.221-9.948-22.221-22.222s9.948-22.22 22.221-22.22c10.541 0 19.325 7.358 21.604 17.204 2.315-1.498 5.062-2.392 8.026-2.392 8.183 0 14.813 6.635 14.813 14.816.001 8.18-6.63 14.814-14.813 14.814zM55.553 14.813a3.704 3.704 0 0 1-3.704-3.702V3.704a3.705 3.705 0 0 1 7.408 0v7.407a3.7 3.7 0 0 1-3.704 3.702zM29.365 23.492l-5.236-5.236a3.703 3.703 0 1 1 5.236-5.238l5.237 5.238a3.703 3.703 0 0 1-5.237 5.236z"></path>
    </g><!---->
</svg>