<svg data-v-423bf9ae="" xmlns="http://www.w3.org/2000/svg" viewBox="0 0 110 91" class="iconLeft"><!----><!----><!---->
    <g
       transform="matrix(1.0134801290459268,0,0,1.0134801290459268,0.3265000094075532,-0.0011468159314489412)"
       stroke="none" fill="white">
        <path d="M96.295 48.146h-7.408a3.702 3.702 0 0 1 0-7.404h7.408a3.704 3.704 0 0 1 3.704 3.701 3.703 3.703 0 0 1-3.704 3.703zM81.744 23.492a3.705 3.705 0 0 1-5.238 0 3.7 3.7 0 0 1 0-5.236l5.238-5.238a3.703 3.703 0 1 1 5.237 5.238l-5.237 5.236zM76.285 52.396a22.26 22.26 0 0 0 1.494-7.953c0-12.27-9.951-22.222-22.226-22.222-7.142 0-13.481 3.384-17.547 8.619a29.628 29.628 0 0 0-8.377-1.21C13.266 29.63 0 42.895 0 59.258c0 16.365 13.266 29.63 29.629 29.63h29.628c12.274 0 22.226-9.951 22.226-22.222a22.123 22.123 0 0 0-5.198-14.27zM55.553 29.63c8.183 0 14.817 6.634 14.817 14.813 0 .969-.102 1.912-.279 2.828a22.12 22.12 0 0 0-10.834-2.828c-1.289 0-2.535.17-3.766.38A29.833 29.833 0 0 0 45.067 33.98a14.765 14.765 0 0 1 10.486-4.35zm3.704 51.85h-29.63c-12.273 0-22.221-9.948-22.221-22.222s9.948-22.22 22.221-22.22c10.541 0 19.325 7.358 21.604 17.204 2.315-1.498 5.062-2.392 8.026-2.392 8.183 0 14.813 6.635 14.813 14.816.001 8.18-6.63 14.814-14.813 14.814zM55.553 14.813a3.704 3.704 0 0 1-3.704-3.702V3.704a3.705 3.705 0 0 1 7.408 0v7.407a3.7 3.7 0 0 1-3.704 3.702zM29.365 23.492l-5.236-5.236a3.703 3.703 0 1 1 5.236-5.238l5.237 5.238a3.703 3.703 0 0 1-5.237 5.236z"></path>
    </g><!---->
</svg>